<?xml version="1.0" encoding="utf-8"?>
<!-- Generator: Adobe Illustrator 26.0.2, SVG Export Plug-In . SVG Version: 6.00 Build 0)  -->
<svg version="1.1" id="Layer_1" xmlns="http://www.w3.org/2000/svg" xmlns:xlink="http://www.w3.org/1999/xlink" x="0px" y="0px"
	 viewBox="0 0 1032 566.7" style="enable-background:new 0 0 1032 566.7;" xml:space="preserve">
<style type="text/css">
	.st0{fill:#C32162;}
	.st1{fill:#ED3723;}
	.st2{fill:#FBFE10;}
	.st3{fill:#24219A;}
	.st4{fill:#FF7300;}
	.st5{fill:#0DB04B;}
	.st6{fill:#9D9D9D;}
	.st7{fill:#C5BDB9;}
	.st8{fill:#28327C;}
	.st9{fill:#C21985;}
	.st10{fill:#606165;}
	.st11{fill:#7E8184;}
</style>
<path class="st0" d="M1026.8,177.2l-162.9,22.5l40.8,69.2c44.6,5.2,89.1-5.6,111.9-31.2C1032.7,219.9,1035.3,198.2,1026.8,177.2z"/>
<path class="st1" d="M6.8,156.6l162.7,41.7l-43.8,80.1c-45.6,1.1-90.4-16.6-112.1-49.3C-1.7,206.2-3.2,180.3,6.8,156.6z"/>
<path class="st2" d="M403.2,213.8c0,3.1-0.4,6.3-1.2,9.5c-0.9,3.2-2.1,6.3-3.7,9.3s-3.6,5.7-5.9,8.2s-3.3,3.4-6.1,5.2
	c8.6,11.8,17.8,23.5,27.6,35.3c-5,4.1-10.2,8.1-15.4,12.2c-11.1-13.7-21.3-27.4-30.8-41c-4.2,0.9-8.4,1.7-12.6,2.6
	c-0.6,15-0.9,30-1,45c-7.1,1.8-14.4,3.6-21.6,5.4c1.4-35.4,4-70.7,7.7-106.1c10.5-2.5,20.8-5,31-7.5c10.3-2.5,18.1-1.9,23.6,2
	C400.3,197.6,403.1,204.3,403.2,213.8z M368.6,239.5c6.7-1.5,11.7-4.3,14.9-8.1c3.2-3.9,4.8-8.4,4.8-13.7c0.1-5.3-1.4-8.9-4.5-11
	s-8-2.3-14.8-0.7c-4,0.9-8.1,1.9-12.1,2.8c-0.8,11.2-1.5,22.5-2,33.7C359.4,241.5,364.1,240.5,368.6,239.5z"/>
<path class="st3" d="M627,196.3c-0.2-4.7-0.5-9.3-0.7-14c20.5,3.9,41.4,7.7,62.7,11.6c1.2,6.8,2.4,13.7,3.6,20.5
	c-11,21.4-23.7,42.8-38.3,64.2c16,2.9,32.3,5.8,48.7,8.7c0.5,4.7,1.1,9.4,1.6,14.1c-23.8-3.7-47.3-7.4-70.4-11.1
	c-2.9-4.1-5.8-8.1-8.7-12.2c18-24.5,33.6-49,46.9-73.5C657,201.8,641.9,199,627,196.3z"/>
<path class="st2" d="M583,357.9c-9.3,34.1-20.4,68.3-33.4,102.6c-6.2-0.3-12.4-0.7-18.6-1c-5.3-27.5-10.2-55-14.7-82.5
	c-10.1,26.5-21.4,53.1-33.8,79.8c-6-0.3-12-0.7-18-1c-4.8-35.6-8.8-71.2-12.1-106.8c7.5,0.6,15.1,1.2,22.6,1.8
	c2,23.9,4.2,47.8,6.7,71.7c9.8-23.2,18.8-46.4,27-69.6c8,0.6,16.1,1.2,24.2,1.7c4.3,22.9,8.8,45.9,13.7,68.8
	c7.1-22.2,13.5-44.5,19.2-66.7C571.5,357.1,577.3,357.5,583,357.9z"/>
<path class="st4" d="M614.5,477.5c65.7,0,131.5,0,197.2,0c-17.7-52.5-35.5-105-53.3-157.6c-53.9,0-107.8,0-161.7,0
	C602.7,372.5,608.6,425,614.5,477.5z M666.1,345.9c11.4,29.6,23.5,59.1,36.2,88.7c18-2.5,35.9-5.1,53.5-7.6
	c2.7,6.2,5.4,12.3,8.1,18.5c-28.8,4.1-58.1,8.2-87.8,12.3c-13.9-35.7-26.9-71.5-38.9-107.2C646.8,349,656.5,347.5,666.1,345.9z"/>
<path class="st4" d="M200.6,162.3c-29.6,52.5-59.3,105.1-88.9,157.6c53.9,0,107.8,0,161.7,0c17.8-52.5,35.6-105.1,53.4-157.6
	C284.7,162.3,242.7,162.3,200.6,162.3z M256.8,285.1c-2.8,2.4-6,4.7-9.4,7c-3.4,2.1-7.2,4.2-11.2,6.1s-8.2,3.5-12.4,4.7
	c-10.3,3-19.3,3.9-26.8,2.6s-13.5-4.1-18-8.4s-7.4-9.9-8.6-16.6c-1.3-6.7-1-14,0.6-21.8c1.6-7.7,4.6-15.6,8.8-23.8s9.5-16,15.8-23.3
	c6.3-7.4,13.3-14,21.1-19.9s16.1-10.3,25.1-13.4c6.2-2.1,11.7-3.1,16.5-3.1c4.8,0.1,9.3,0.9,13.4,2.4c-1.4,5.9-2.7,11.7-4.1,17.6
	c-3.4-1.4-7.7-2.1-11.5-2.2c-3.8-0.1-6.9-0.6-11.3,0.8c-6.2,2.1-11.9,5.2-17.1,9.3c-5.2,4.1-9.8,8.8-13.6,14
	c-4,5.3-7.3,10.8-9.9,16.7c-2.6,5.9-3.6,7.8-4.7,13.4c-1.1,5.8-1.3,11.3-0.6,16.4s2.4,9.3,5.2,12.7c2.7,3.4,6.6,5.6,11.4,6.7
	c4.9,1.1,10.9,0.6,17.9-1.5c5.5-1.7,10.7-4.1,15.5-7.3c4.8-3.2,6.5-5.4,11.5-10.5c1.1,4.9,2.2,9.7,3.4,14.6
	C262,280.4,259.6,282.7,256.8,285.1z"/>
<g>
	<path class="st5" d="M498.9,261.5c10.9-1.4,21.7-2.8,32.4-4.2c-7.6-16.3-14.7-32.5-21.3-48.8C506.6,226.2,502.9,243.9,498.9,261.5z
		"/>
	<path class="st5" d="M452.8,162.3c-5.9,52.5-11.9,105.1-17.8,157.6c53.9,0,107.8,0,161.7,0c-5.9-52.5-11.9-105.1-17.8-157.6
		C536.9,162.3,494.9,162.3,452.8,162.3z M552.8,299.9c-4.8-8.9-9.4-17.7-13.8-26.6c-14.6,1.9-29.4,3.8-44.3,5.6
		c-2.2,9.6-4.4,19.3-6.8,28.9c-6,0.7-11.9,1.4-17.9,2.2c12-42,22.3-83.9,31-125.9c5.8-1.2,11.6-2.4,17.4-3.6
		c16,38.5,35.2,77,57.6,115.5C568.3,297.3,560.6,298.6,552.8,299.9z"/>
</g>
<g>
	<path class="st6" d="M313.3,69.1c12.8-9.7,16.8-24.2,8.7-37C311.1,14.8,282.2,7,257.6,14.7c-24.7,7.7-35.8,27.9-24.9,45.1
		c8.9,14.1,29.8,21.9,50.6,20.1l46.8,84l35.9-0.1L313.3,69.1z M287.6,62c-12.7,3.9-27.6-0.1-33.2-9c-5.6-8.9,0.1-19.3,12.8-23.3
		c12.7-3.9,27.6,0.1,33.2,9C306,47.6,300.3,58.1,287.6,62z"/>
</g>
<g>
	<path class="st7" d="M786,6.3c-23-11.4-53-5.7-67.2,12.8c-10.5,13.8-9.3,30.7,1.5,43.2l-68.6,99.4l38.5-0.2l57.7-83.6
		c20.2,4.3,42.4-2.3,54-17.4C816.1,42,809,17.7,786,6.3z M781.8,50.4C774.5,60,759,62.9,747.2,57s-15.5-18.4-8.2-27.9
		s22.8-12.5,34.6-6.6C785.4,28.4,789.1,40.9,781.8,50.4z"/>
</g>
<polygon class="st4" points="110.8,327.7 231.1,402.5 261.8,327.7 "/>
<g>
	<path class="st8" d="M705.1,162.3c17.8,52.5,35.6,105.1,53.4,157.6c53.9,0,107.8,0,161.7,0c-29.6-52.5-59.3-105.1-88.9-157.6
		C789.1,162.3,747.1,162.3,705.1,162.3z M826.8,259c5.4,13.6,10.6,27.3,15.9,40.9c-8.3-0.7-16.6-1.4-24.8-2.2
		c-4.8-13.6-9.6-27.3-14.5-40.9c-19.7-23.4-38.4-46.8-56-70.1c5.3,0.5,10.6,1.1,16,1.6c13.7,18,27.9,36,42.6,54
		c1.8-16.5,2.9-33,3.2-49.5c7.6,0.8,15.1,1.5,22.7,2.3C831.5,216.4,829.8,237.7,826.8,259z"/>
	<polygon class="st8" points="920.2,327.7 808.8,420.1 769.2,327.7 	"/>
</g>
<g>
	<path class="st9" d="M220,477.5c65.7,0,131.5,0,197.2,0c5.9-52.5,11.9-105.1,17.8-157.6c-53.9,0-107.8,0-161.7,0
		C255.6,372.5,237.8,425,220,477.5z M282.5,387.2c2.5-7.4,6.1-14.2,10.7-20.4c4.6-6.2,10.3-11.6,17.1-16.1
		c6.8-4.5,18.6-7.8,27.7-9.4c9.3-1.7,17.1-1.5,23.6,0.7s11.8,5.6,16.1,10.3c4.2,4.7,7.5,10.4,9.8,17s3.7,13.5,4.2,20.6
		c0.5,7.3,0.1,14.6-1.4,21.9c-1.5,7.4-4.2,14.2-8.2,20.4c-4.1,6.3-9.5,11.7-16.6,16.2c-7,4.5-20.3,7.8-30.8,9.4
		c-10.6,1.7-19.8,1.5-27.3-0.7s-13.5-5.6-18-10.3c-4.5-4.7-7.6-10.4-9.4-17s-2.4-13.5-2-20.7C278.5,401.8,280,394.5,282.5,387.2z"/>
	<path class="st9" d="M299.2,421c1.1,5,3.1,9.3,6,12.9c2.9,3.7,6.7,6.4,11.4,8.1c4.7,1.7,10.5,2.1,17.2,1c6.9-1.1,12.7-3.3,17.3-6.6
		c4.6-3.3,8.2-7.2,10.9-11.7c2.5-4.4,4.3-9.3,5.3-14.7c1-5.4,1.3-10.8,1.1-16.2c-0.2-5.5-1-10.7-2.4-15.7c-1.3-5-3.4-9.3-6.1-13
		c-2.7-3.6-6.2-6.2-10.3-8c-4.2-1.7-9.3-2.1-15.3-1c-6.2,1.1-11.5,3.3-15.9,6.6c-4.4,3.3-8.1,7.1-11.1,11.6
		c-2.9,4.5-5.2,9.5-6.7,14.9s-2.4,10.8-2.6,16.2C297.6,410.7,298.1,415.9,299.2,421z"/>
	<polygon class="st9" points="225.2,487.7 439.3,566.2 414,487.7 	"/>
</g>
<polygon class="st2" points="423.8,487.7 450.4,566.7 595.2,555.6 603.7,487.7 "/>
<polygon class="st4" points="808.8,487.7 615.4,487.7 604.8,555.4 622.8,555.2 "/>
<path class="st10" d="M246.7,75.9c0,0,19.6,10.8,35.2,6.4l8.8,17.6C290.7,99.9,265.8,92.1,246.7,75.9z"/>
<path class="st10" d="M269.7,58.9c-6.9-13.5,9.3-24.4,22.2-23.9c-7.9-6.2-22.5-6.1-30.5,0.2c-5,4-7.1,7.9-5,14.1
	c1.5,4.3,7.7,11.2,12.7,10.5"/>
<path class="st11" d="M788.7,75.9c0,0-22.7,10.8-40.8,6.4l-10.2,17.6C737.7,99.9,766.6,92.1,788.7,75.9z"/>
<path class="st11" d="M767,54.4c7.7-14.6-10.5-26.4-24.9-25.9c8.8-6.7,25.2-6.6,34.1,0.2c5.6,4.3,7.9,8.6,5.6,15.2
	c-1.6,4.7-8.6,12.1-14.2,11.4"/>
<path class="st1" d="M124,285.6c0,0-88-7.3-107-45.5c0,0,11.7,38.1,92.4,63L124,285.6z"/>
<path class="st0" d="M909.3,276.4c0,0,88.3,2.3,112.4-38.4c0,0-16.8,41.6-100.3,60L909.3,276.4z"/>
<g>
	<path class="st0" d="M867.5,183.6h-4.7v-18.9h-6.9v-4.1h18.5v4.1h-6.9L867.5,183.6L867.5,183.6z"/>
	<path class="st0" d="M899.7,183.6h-4.4v-17.8l-4.2,17.8h-4.5l-4.1-17.8h-0.1v17.8H878v-23h6.9L889,178l0,0l3.9-17.4h6.7
		L899.7,183.6L899.7,183.6z"/>
</g>
</svg>
